# xmcd CD database file
#
# Track frame offsets:
#	182
#	14122
#	27030
#	44395
#	58327
#	70695
#	100865
#	117765
#	131457
#	145005
#	169855
#	184042
#
# Disc length: 2625 seconds
#
# Revision: 2
# Processed by: cddbd v1.5.2PL0 Copyright (c) Steve Scherf et al.
# Submitted via: CDex 1.51
#
DISCID=a30a3f0c
DTITLE=Louis Armstrong - My greatest Songs
DYEAR=1991
DGENRE=Jazz
TTITLE0=C'est si bon
TTITLE1=Ko-Ko-Mo
TTITLE2=Basin Street Blues
TTITLE3=That lucky old Sun
TTITLE4=When the Saints go marching in
TTITLE5=New Orleans Function
TTITLE6=Skokiaan
TTITLE7=A Kiss to build a Dream on
TTITLE8=Struttin' with some Barbecue
TTITLE9=Otchi-Tchor-Ni-Ya
TTITLE10=Moments to remember
TTITLE11=Blueberry Hill
EXTD=YEAR: 1991
EXTT0=
EXTT1=
EXTT2=
EXTT3=
EXTT4=
EXTT5=a) Free as a bird\nb) Oh! didn't he ramble\n
EXTT6=
EXTT7=
EXTT8=
EXTT9=
EXTT10=
EXTT11=
PLAYORDER=
